<?xml version="1.0" standalone="no"?>
<!DOCTYPE svg PUBLIC "-//W3C//DTD SVG 20010904//EN"
 "http://www.w3.org/TR/2001/REC-SVG-20010904/DTD/svg10.dtd">
<svg version="1.0" xmlns="http://www.w3.org/2000/svg"
 width="185.000000pt" height="40.000000pt" viewBox="0 0 185.000000 40.000000"
 preserveAspectRatio="xMidYMid meet">

<g transform="translate(0.000000,40.000000) scale(0.100000,-0.100000)"
fill="#000000" stroke="none">
<path d="M552 368 c-6 -6 -12 -25 -12 -40 0 -18 -5 -28 -15 -28 -8 0 -15 -6
-15 -14 0 -8 7 -16 15 -20 12 -4 15 -26 15 -106 0 -93 1 -100 20 -100 19 0 20
7 20 105 0 87 3 105 15 105 8 0 15 7 15 15 0 8 -7 15 -15 15 -23 0 -18 41 5
47 12 3 19 11 17 17 -5 16 -50 19 -65 4z"/>
<path d="M138 228 c-3 -110 -6 -133 -18 -133 -10 0 -16 12 -18 38 -3 30 -7 37
-20 35 -24 -4 -29 -70 -7 -92 21 -20 69 -21 89 0 13 12 16 41 16 150 0 127 -1
134 -20 134 -18 0 -20 -8 -22 -132z"/>
<path d="M800 341 c0 -11 -7 -26 -15 -35 -17 -17 -20 -36 -5 -36 6 0 10 -38
10 -94 0 -101 9 -120 51 -114 29 4 35 24 9 31 -18 5 -20 13 -20 91 0 79 2 86
20 86 11 0 20 7 20 15 0 8 -9 15 -20 15 -16 0 -20 7 -20 30 0 20 -5 30 -15 30
-8 0 -15 -9 -15 -19z"/>
<path d="M248 283 c-34 -38 -34 -175 -2 -208 33 -33 104 -9 104 36 0 26 -30
25 -37 -1 -9 -35 -38 -20 -41 23 l-3 37 40 0 41 0 0 48 c0 35 -5 54 -18 65
-24 22 -65 22 -84 0z m60 -51 c3 -27 0 -32 -17 -32 -16 0 -21 6 -21 28 0 53
33 56 38 4z"/>
<path d="M390 180 c0 -113 1 -120 20 -120 18 0 20 8 22 102 2 66 7 103 15 105
6 2 13 -6 15 -19 4 -31 32 -30 36 2 4 42 -12 57 -48 43 -16 -6 -30 -7 -30 -2
0 5 -7 9 -15 9 -12 0 -15 -20 -15 -120z"/>
<path d="M646 284 c-23 -22 -20 -56 9 -95 13 -19 32 -44 41 -56 8 -12 13 -27
9 -33 -11 -17 -37 -11 -42 10 -7 28 -33 25 -33 -3 0 -32 18 -47 56 -47 65 0
75 57 20 127 -39 50 -48 87 -18 81 9 -2 18 -13 20 -26 2 -12 10 -22 18 -22 17
0 19 51 2 68 -17 17 -64 15 -82 -4z"/>
<path d="M900 180 c0 -113 1 -120 20 -120 18 0 20 8 22 102 2 66 7 103 15 105
6 2 13 -6 15 -19 5 -34 33 -29 33 6 0 37 -27 56 -55 38 -12 -7 -20 -8 -20 -2
0 5 -7 10 -15 10 -12 0 -15 -20 -15 -120z"/>
<path d="M1063 292 c-33 -21 -44 -136 -19 -197 13 -31 20 -35 50 -35 51 0 66
27 66 120 0 88 -16 120 -58 120 -15 0 -32 -4 -39 -8z m55 -107 c3 -80 -7 -110
-30 -87 -16 16 -22 111 -9 145 20 51 36 26 39 -58z"/>
<path d="M1200 180 l0 -120 25 0 c24 0 24 1 27 102 3 89 5 103 21 106 15 3 17
-7 17 -102 0 -99 1 -106 20 -106 19 0 20 7 20 94 0 70 4 97 15 106 27 23 35 0
35 -101 0 -92 1 -99 20 -99 19 0 20 7 20 108 0 71 -4 112 -12 120 -15 15 -50
16 -65 1 -8 -8 -16 -7 -31 2 -16 10 -26 10 -46 1 -16 -7 -26 -8 -26 -2 0 6 -9
10 -20 10 -19 0 -20 -7 -20 -120z"/>
<path d="M1620 204 c-65 -12 -130 -52 -130 -81 0 -10 10 -12 40 -7 24 4 40 3
40 -3 0 -12 -29 -38 -50 -46 -12 -4 -12 -6 2 -6 23 -1 68 19 94 41 18 16 27
17 74 7 49 -10 52 -13 35 -25 -18 -14 -18 -14 1 -14 29 0 48 16 41 34 -8 21 8
29 23 11 17 -20 30 -19 30 3 0 10 -15 32 -32 49 -27 25 -44 32 -88 36 -30 3
-66 3 -80 1z"/>
<path d="M1634 90 c0 -24 20 -21 24 3 2 9 -3 17 -10 17 -8 0 -14 -9 -14 -20z"/>
<path d="M383 23 c203 -2 531 -2 730 0 199 1 34 2 -368 2 -402 0 -564 -1 -362
-2z"/>
</g>
</svg>
